<svg width="24" height="24" viewBox="0 0 24 24" fill="none" xmlns="http://www.w3.org/2000/svg">
<path d="M11.4376 1.01719C8.04386 1.20469 5.00636 2.87812 3.01417 5.6625C1.18136 8.22187 0.557922 11.5734 1.33605 14.6719C1.82823 16.6406 2.7798 18.3047 4.23761 19.7625C6.00011 21.5156 8.07667 22.5516 10.5704 22.9031C11.3157 23.0063 12.6751 23.0063 13.4298 22.9031C17.9954 22.275 21.6517 18.9609 22.7017 14.5078C22.9876 13.2984 23.0673 11.7516 22.9032 10.5703C22.636 8.6625 21.9189 6.90469 20.7798 5.38125C20.3251 4.77187 19.2376 3.67969 18.6564 3.24375C16.8564 1.90312 14.9439 1.19062 12.7267 1.03125C12.0892 0.984374 11.9907 0.984374 11.4376 1.01719ZM13.1157 2.06719C16.9314 2.48437 20.2267 5.14219 21.4642 8.79844C22.1626 10.8562 22.1626 13.1437 21.4642 15.2016C20.5782 17.8219 18.6189 19.9781 16.0782 21.1219C13.8517 22.125 11.2314 22.2656 8.90167 21.4969C6.27199 20.6344 4.08761 18.6937 2.92511 16.1906C2.0298 14.2547 1.78136 11.9953 2.23136 9.89062C2.63917 8.00156 3.54855 6.3375 4.94542 4.94531C6.52511 3.36094 8.5173 2.37656 10.711 2.08594C11.297 2.01094 12.5157 2.00156 13.1157 2.06719Z" fill="#000F34"/>
<path d="M7.23737 7.58906C7.15768 7.64062 7.06862 7.74844 7.0358 7.83281C6.9983 7.93594 6.98424 8.83125 6.98424 10.8234C6.98424 13.3781 6.97487 13.6781 6.90924 13.7766C6.77799 13.9594 6.56705 14.0156 5.99987 14.0156C5.17487 14.0156 5.01549 13.9031 5.01549 13.3219C5.01549 12.7734 4.85143 12.5156 4.49518 12.5156C4.27955 12.5156 4.10143 12.6516 4.02643 12.8766C3.95612 13.0969 3.9983 13.7297 4.10143 14.0297C4.20924 14.3344 4.57487 14.7234 4.88424 14.8641C5.11862 14.9719 5.18893 14.9766 5.99987 14.9766C6.8108 14.9766 6.88112 14.9719 7.11549 14.8641C7.41549 14.7281 7.7858 14.3391 7.90299 14.0297C7.98268 13.8234 7.99205 13.5891 8.00612 10.9219C8.01549 8.90156 8.00612 7.9875 7.96862 7.86094C7.91237 7.66406 7.69674 7.5 7.49987 7.5C7.43424 7.5 7.31705 7.54219 7.23737 7.58906Z" fill="#000F34"/>
<path d="M12.7408 7.57969C12.6705 7.62187 12.5955 7.69219 12.5767 7.73437C12.5533 7.77187 12.5299 8.93437 12.5158 10.3125L12.4924 12.8203L12.3377 13.1344C12.1642 13.4906 11.9533 13.6969 11.5783 13.8703C11.3252 13.9922 11.297 13.9922 10.0455 14.0156C8.77986 14.0391 8.77048 14.0391 8.6533 14.1516C8.49392 14.3016 8.45642 14.5266 8.55017 14.7141C8.6908 14.9812 8.77986 15 10.0642 15C11.5924 15 11.9252 14.925 12.5205 14.4703L12.7314 14.3109L12.9049 14.5125C12.9986 14.6203 13.2002 14.7703 13.3502 14.8453L13.6174 14.9766L16.6174 14.9906C19.533 15 19.622 15 19.7674 14.9109C20.0345 14.7422 20.0533 14.3391 19.8049 14.1187C19.6924 14.025 19.6361 14.0156 19.1017 14.0156H18.5205L18.4924 13.8375C18.3799 13.0922 18.183 12.6703 17.7658 12.2484C17.4611 11.9437 17.1002 11.7281 16.6877 11.6016C16.4064 11.5172 15.2252 11.4469 14.9392 11.5031C14.6064 11.5641 14.4142 11.9062 14.5502 12.1969C14.6767 12.4641 14.7564 12.4875 15.633 12.5156C16.3736 12.5391 16.4439 12.5531 16.6642 12.6656C17.1002 12.8953 17.4189 13.3312 17.4705 13.7859L17.4986 14.0156H15.7314C13.833 14.0156 13.7158 14.0016 13.5845 13.7719C13.5377 13.6875 13.5189 13.05 13.5002 10.725L13.4767 7.78125L13.3549 7.65937C13.1955 7.50469 12.9142 7.46719 12.7408 7.57969Z" fill="#000F34"/>
<path d="M9.29531 8.54998C9.14062 8.6203 9 8.83123 9 8.99998C9 9.13592 9.075 9.27186 9.27656 9.49217C9.91875 10.1906 10.4016 11.3344 10.4859 12.3281C10.5141 12.6422 10.5328 12.6937 10.6687 12.8344C10.8797 13.0453 11.1328 13.0453 11.3484 12.8344L11.4984 12.6844L11.4703 12.2344C11.4047 11.1515 10.8984 9.87186 10.2047 9.04686C9.76406 8.52655 9.58125 8.42811 9.29531 8.54998Z" fill="#000F34"/>
</svg>
