<svg width="24" height="24" viewBox="0 0 24 24" fill="none" xmlns="http://www.w3.org/2000/svg">
<path d="M19.5 16.1416C19.5 18.4384 18.4437 20.2729 17.0006 21.5429C15.5469 22.8224 13.7328 23.5 12.2867 23.5C9.3692 23.5 5.5 20.7662 5.5 16.1416C5.5 13.7727 6.50298 9.80751 7.91717 6.41575C8.62201 4.72526 9.41587 3.20965 10.2145 2.12596C10.6141 1.58372 11.0025 1.16672 11.367 0.889452C11.7339 0.610346 12.04 0.5 12.2867 0.5C12.535 0.5 12.8492 0.611664 13.23 0.893439C13.6074 1.17272 14.0127 1.59179 14.4323 2.13497C15.2708 3.22052 16.1172 4.73754 16.8747 6.42781C18.3958 9.82214 19.5 13.7817 19.5 16.1416Z" stroke="#50A333"/>
<path d="M14.5886 10.907C14.6846 10.703 14.8436 10.601 15.0656 10.601C15.2156 10.601 15.3506 10.649 15.4706 10.745C15.5906 10.841 15.6506 10.961 15.6506 11.105C15.6506 11.171 15.6326 11.246 15.5966 11.33L13.1036 16.694C13.0496 16.808 12.9656 16.898 12.8516 16.964C12.7436 17.024 12.6266 17.054 12.5006 17.054C12.3746 17.054 12.2546 17.024 12.1406 16.964C12.0326 16.898 11.9516 16.808 11.8976 16.694L9.4136 11.33C9.3776 11.246 9.3596 11.174 9.3596 11.114C9.3596 10.964 9.4196 10.841 9.5396 10.745C9.6656 10.649 9.8066 10.601 9.9626 10.601C10.0646 10.601 10.1576 10.628 10.2416 10.682C10.3316 10.73 10.4006 10.805 10.4486 10.907L12.5186 15.506L14.5886 10.907Z" fill="#50A333"/>
</svg>
