<svg width="24" height="24" viewBox="0 0 24 24" fill="none" xmlns="http://www.w3.org/2000/svg">
<path d="M19.5 16.1416C19.5 18.4384 18.4437 20.2729 17.0006 21.5429C15.5469 22.8224 13.7328 23.5 12.2867 23.5C9.3692 23.5 5.5 20.7662 5.5 16.1416C5.5 13.7727 6.50298 9.80751 7.91717 6.41575C8.62201 4.72526 9.41587 3.20965 10.2145 2.12596C10.6141 1.58372 11.0025 1.16672 11.367 0.889452C11.7339 0.610346 12.04 0.5 12.2867 0.5C12.535 0.5 12.8492 0.611664 13.23 0.893439C13.6074 1.17272 14.0127 1.59179 14.4323 2.13497C15.2708 3.22052 16.1172 4.73754 16.8747 6.42781C18.3958 9.82214 19.5 13.7817 19.5 16.1416Z" stroke="#50A333"/>
<path d="M11.7931 11.584C11.8784 11.4027 12.0197 11.312 12.2171 11.312C12.3504 11.312 12.4704 11.3547 12.5771 11.44C12.6837 11.5253 12.7371 11.632 12.7371 11.76C12.7371 11.8187 12.7211 11.8853 12.6891 11.96L10.4731 16.728C10.4251 16.8293 10.3504 16.9093 10.2491 16.968C10.1531 17.0213 10.0491 17.048 9.93705 17.048C9.82505 17.048 9.71839 17.0213 9.61705 16.968C9.52105 16.9093 9.44905 16.8293 9.40105 16.728L7.19305 11.96C7.16105 11.8853 7.14505 11.8213 7.14505 11.768C7.14505 11.6347 7.19839 11.5253 7.30505 11.44C7.41705 11.3547 7.54239 11.312 7.68105 11.312C7.77172 11.312 7.85439 11.336 7.92905 11.384C8.00905 11.4267 8.07039 11.4933 8.11305 11.584L9.95305 15.672L11.7931 11.584ZM17.5554 13.952C17.678 13.952 17.7767 13.9893 17.8514 14.064C17.926 14.1333 17.9634 14.2267 17.9634 14.344V16.064C17.9634 16.3093 17.9314 16.4827 17.8674 16.584C17.8034 16.6853 17.6727 16.768 17.4754 16.832C17.262 16.9067 17.014 16.9653 16.7314 17.008C16.4487 17.0507 16.1767 17.072 15.9154 17.072C15.334 17.072 14.83 16.9573 14.4034 16.728C13.9767 16.4987 13.6487 16.168 13.4194 15.736C13.1954 15.2987 13.0834 14.7787 13.0834 14.176C13.0834 13.584 13.1954 13.072 13.4194 12.64C13.6487 12.2027 13.9714 11.8693 14.3874 11.64C14.8034 11.4053 15.294 11.288 15.8594 11.288C16.6114 11.288 17.2274 11.4907 17.7074 11.896C17.7714 11.9547 17.8167 12.0133 17.8434 12.072C17.8754 12.1307 17.8914 12.2 17.8914 12.28C17.8914 12.3973 17.8594 12.496 17.7954 12.576C17.7314 12.656 17.654 12.696 17.5634 12.696C17.5047 12.696 17.4514 12.688 17.4034 12.672C17.3554 12.6507 17.2994 12.6187 17.2354 12.576C17.0007 12.4107 16.782 12.296 16.5794 12.232C16.3767 12.1627 16.1474 12.128 15.8914 12.128C15.31 12.128 14.87 12.3013 14.5714 12.648C14.278 12.9893 14.1314 13.4987 14.1314 14.176C14.1314 15.5627 14.7394 16.256 15.9554 16.256C16.318 16.256 16.6807 16.2053 17.0434 16.104V14.688H16.1394C16.0114 14.688 15.91 14.656 15.8354 14.592C15.766 14.528 15.7314 14.4373 15.7314 14.32C15.7314 14.2027 15.766 14.112 15.8354 14.048C15.91 13.984 16.0114 13.952 16.1394 13.952H17.5554Z" fill="#50A333"/>
</svg>
