<svg width="24" height="24" viewBox="0 0 24 24" fill="none" xmlns="http://www.w3.org/2000/svg">
<g clip-path="url(#clip0_244_328)">
<path d="M12 0.00012207C5.38315 0.00012207 0 5.38327 0 12.0001C0 18.6169 5.38315 24 12 24C18.6169 24 24 18.6169 24 12.0001C24 5.38327 18.6169 0.00012207 12 0.00012207ZM11.7165 14.9569C11.418 15.2774 11.099 15.5625 10.5867 15.8121C10.0743 16.0618 9.42785 16.1866 8.64533 16.1866C7.65043 16.1866 6.8129 15.8773 6.18321 15.2587C5.55344 14.6402 5.21349 13.8372 5.21349 12.8497V11.1505C5.21349 10.1668 5.5418 9.36469 6.1474 8.74428C6.75288 8.12384 7.5454 7.81364 8.49938 7.81364C9.49055 7.81364 10.2562 8.05495 10.7835 8.53746C11.3107 9.02007 11.5832 9.66532 11.5943 10.4515L11.5864 10.4959H10.0493C10.0194 10.0268 9.88159 9.71088 9.63565 9.45935C9.38972 9.20785 9.03007 9.07666 8.55691 9.07666C8.05752 9.07666 7.66904 9.26661 7.36357 9.65193C7.05799 10.0373 6.91921 10.5305 6.91921 11.1373V12.8461C6.91921 13.4641 7.06356 13.9657 7.38033 14.3511C7.69702 14.7364 8.11675 14.929 8.65332 14.929C9.0334 14.929 9.34992 14.89 9.58102 14.8119C9.81202 14.734 9.92555 14.6374 10.1174 14.5222V13.0331H8.60362V11.9031H11.7166V14.9569H11.7165ZM18.7739 9.1739H14.7229V11.434H18.1982V12.6493H14.7229V16.0394H13.1237V7.95858H18.7739V9.1739Z" fill="#DE6B00"/>
</g>
<defs>
<clipPath id="clip0_244_328">
<rect width="24" height="24" fill="white"/>
</clipPath>
</defs>
</svg>
